<?xml version="1.0" encoding="iso-8859-1"?>
<!-- Generator: Adobe Illustrator 18.0.0, SVG Export Plug-In . SVG Version: 6.00 Build 0)  -->
<!DOCTYPE svg PUBLIC "-//W3C//DTD SVG 1.1//EN" "http://www.w3.org/Graphics/SVG/1.1/DTD/svg11.dtd">
<svg version="1.1" id="Capa_1" xmlns="http://www.w3.org/2000/svg" xmlns:xlink="http://www.w3.org/1999/xlink" x="0px" y="0px"
	 viewBox="0 0 291.766 291.766" style="enable-background:new 0 0 291.766 291.766;" xml:space="preserve">
<g>
	<path d="M270.514,70.157c0.727-1.438,0.732-3.134,0.017-4.577c-0.717-1.443-2.071-2.467-3.656-2.758
		c-13.687-2.512-45.59-6.949-63.779,2.078c-8.33,4.134-15.336,9.523-20.599,15.428c1.476-3.003,2.795-6.186,3.919-9.522
		c6.89-20.472-2.531-53.568-7.07-67.298c-0.505-1.526-1.699-2.727-3.223-3.24c-1.525-0.513-3.202-0.28-4.527,0.631
		c-11.917,8.189-39.435,28.853-46.324,49.325c-1.501,4.458-2.553,8.903-3.195,13.241c-10.451-8.559-28.147-13.505-37.734-15.688
		c-1.591-0.362-3.26,0.058-4.491,1.129c-1.23,1.071-1.877,2.667-1.737,4.293c0.48,5.597,1.49,13.94,3.578,22.216l5.126,4.001
		c-0.433,0.554-6.334,8.302-10.133,22.14c-1.246,4.537-2.266,9.727-2.791,15.535c-30.211,5.244-53.189,31.57-53.189,63.28
		c0,3.118,2.527,5.645,5.645,5.645h117.205c3.118,0,5.646-2.527,5.646-5.645c0-32.409-24-59.198-55.194-63.601
		c0.692-5.886,2.001-10.795,3.399-14.661c2.27-6.271,4.755-9.807,5.18-10.387l9.853,7.689c0,0,0.11-0.13,0.298-0.395
		c-0.152,0.215-1.576,2.278-3.075,6.07c31.632,10.408,54.54,40.213,54.54,75.283c0,5.501-2.177,10.494-5.696,14.198
		c0,0.083,0.005,0.166,0.005,0.249c0,7.752-0.948,15.614-2.776,23.436c3.053,3.192,5.972,5.955,8.306,8.064
		c1.211,1.095,2.871,1.544,4.469,1.212c1.599-0.333,2.942-1.408,3.616-2.895c4.058-8.956,10.817-26.041,10.321-39.539
		c3.846,2.11,8.022,3.962,12.479,5.462c20.471,6.891,53.566-2.531,67.296-7.07c1.526-0.505,2.727-1.699,3.24-3.223
		c0.513-1.524,0.28-3.202-0.631-4.527c-8.189-11.917-28.853-39.433-49.323-46.323c-3.339-1.122-6.67-1.999-9.955-2.639
		c7.885-0.62,16.413-2.943,24.746-7.077C248.482,110.671,264.238,82.578,270.514,70.157z"/>
	<path d="M69.138,234.319c2.408,3.369,1.63,8.054-1.74,10.463c-1.321,0.944-2.846,1.399-4.355,1.399
		c-2.339,0-4.644-1.092-6.107-3.14c-6.64-9.287-14.475-23.954-15.234-42.025H26.624c2.367,32.204,22.731,60.964,43.364,76.331
		c2.043,1.521,7.157,7.777,10.838,12.428c0.996,1.258,2.514,1.991,4.118,1.991c1.606,0,3.126-0.732,4.121-1.991
		c3.669-4.642,8.771-10.884,10.845-12.428c20.634-15.367,40.997-44.127,43.364-76.331H56.716
		C57.353,212.198,61.7,223.915,69.138,234.319z"/>
</g>
<g>
</g>
<g>
</g>
<g>
</g>
<g>
</g>
<g>
</g>
<g>
</g>
<g>
</g>
<g>
</g>
<g>
</g>
<g>
</g>
<g>
</g>
<g>
</g>
<g>
</g>
<g>
</g>
<g>
</g>
</svg>
